<?xml version="1.0" encoding="UTF-8" standalone="no"?>
<svg
   xmlns:dc="http://purl.org/dc/elements/1.1/"
   xmlns:cc="http://creativecommons.org/ns#"
   xmlns:rdf="http://www.w3.org/1999/02/22-rdf-syntax-ns#"
   xmlns:svg="http://www.w3.org/2000/svg"
   xmlns="http://www.w3.org/2000/svg"
   xmlns:sodipodi="http://sodipodi.sourceforge.net/DTD/sodipodi-0.dtd"
   xmlns:inkscape="http://www.inkscape.org/namespaces/inkscape"
   style="shape-rendering:crispEdges"
   viewBox="0 0 20.000001 20.000001"
   height="20"
   width="20"
   version="1.1"
   id="svg4282"
   inkscape:version="0.91 r13725"
   sodipodi:docname="505_logo.svg">
  <sodipodi:namedview
     pagecolor="#ffffff"
     bordercolor="#666666"
     borderopacity="1"
     objecttolerance="10"
     gridtolerance="10"
     guidetolerance="10"
     inkscape:pageopacity="0"
     inkscape:pageshadow="2"
     inkscape:window-width="3840"
     inkscape:window-height="2053"
     id="namedview3402"
     showgrid="false"
     units="px"
     inkscape:zoom="1"
     inkscape:cx="531.49606"
     inkscape:cy="531.49606"
     inkscape:window-x="0"
     inkscape:window-y="0"
     inkscape:window-maximized="1"
     inkscape:current-layer="svg4282" />
  <title
     id="title4280">505 International</title>
  <metadata
     id="metadata4288">
    <rdf:RDF>
      <cc:Work
         rdf:about="">
        <dc:format>image/svg+xml</dc:format>
        <dc:type
           rdf:resource="http://purl.org/dc/dcmitype/StillImage" />
        <dc:title>505 International</dc:title>
        <dc:publisher>
          <cc:Agent>
            <dc:title>Marcin Pietrzak</dc:title>
          </cc:Agent>
        </dc:publisher>
        <dc:subject>
          <rdf:Bag>
            <rdf:li>505</rdf:li>
          </rdf:Bag>
        </dc:subject>
        <cc:license
           rdf:resource="http://creativecommons.org/publicdomain/zero/1.0/" />
      </cc:Work>
      <cc:License
         rdf:about="http://creativecommons.org/publicdomain/zero/1.0/">
        <cc:permits
           rdf:resource="http://creativecommons.org/ns#Reproduction" />
        <cc:permits
           rdf:resource="http://creativecommons.org/ns#Distribution" />
        <cc:permits
           rdf:resource="http://creativecommons.org/ns#DerivativeWorks" />
      </cc:License>
    </rdf:RDF>
  </metadata>
  <defs
     id="defs4286" />
  <path
     id="path5188"
     d="m 15.091278,3.6475612 -0.41073,3.9862 c 1.84749,-0.70196 3.74482,-0.59975 3.74482,0.47204 0,1.14123 -2.27715,1.18656 -3.81868,0.24012 l -0.10824,1.05391 c -0.75305,-1.83475 -2.55685,-3.12684 -4.66236,-3.12684 -1.91849,0 -3.58647,1.07275 -4.43735,2.6513 0.0899,-0.26417 0.13858,-0.56172 0.13702,-0.89432 -0.006,-1.28537 -1.19417,-2.69843 -3.59357,-2.09909 l 0.0719,-0.76741 3.10063,0 0.15981,-1.50268 -4.64749004,0 -0.41074,3.9862 c 1.84750004,-0.70196 3.74485004,-0.59975 3.74485004,0.47204 0,1.14125 -2.27718,1.18656 -3.81871004,0.24012 L -2.0361372e-6,9.7460612 C 1.419248,10.903651 4.190358,10.962731 5.176628,9.3927612 c -0.24394,0.59174 -0.37857,1.2401098 -0.37857,1.9199598 0,2.78335 2.2556,5.03972 5.03801,5.03972 2.7824,0 5.03799,-2.25637 5.03799,-5.03972 0,-0.4955 -0.0716,-0.97429 -0.20478,-1.4266398 1.82321,1.2510798 5.34379,0.9230198 5.33069,-1.86934 -0.006,-1.28537 -1.19417,-2.69843 -3.59357,-2.09911 l 0.0719,-0.76742 3.10062,0 0.15982,-1.50265 z m -5.25519,4.11678 c 1.94899,0 3.52894,1.58052 3.52894,3.5301898 0,1.94963 -1.57995,3.53014 -3.52894,3.53014 -1.94899,0 -3.52896,-1.58051 -3.52896,-3.53014 0,-1.9496698 1.57997,-3.5301898 3.52896,-3.5301898 z"
     style="opacity:1;fill:#ffffff;fill-opacity:1;stroke:none;stroke-width:4.99999952;stroke-linecap:square;stroke-linejoin:miter;stroke-miterlimit:4;stroke-dasharray:none;stroke-opacity:1"
     inkscape:connector-curvature="0" />
</svg>
